<svg width="420" height="280" viewBox="0 0 420 280" fill="none" xmlns="http://www.w3.org/2000/svg">
  <defs>
    <filter id="softBlurLeft" x="-20%" y="-20%" width="140%" height="140%">
      <feGaussianBlur stdDeviation="0.9" />
    </filter>
    <linearGradient id="stemLeft" x1="0" y1="0" x2="1" y2="1">
      <stop offset="0" stop-color="#9AAE9F" stop-opacity="0.42"/>
      <stop offset="1" stop-color="#7F9385" stop-opacity="0.22"/>
    </linearGradient>
    <linearGradient id="leafLeft" x1="0" y1="0" x2="1" y2="1">
      <stop offset="0" stop-color="#AABCAF" stop-opacity="0.42"/>
      <stop offset="1" stop-color="#8FA191" stop-opacity="0.18"/>
    </linearGradient>
  </defs>

  <g filter="url(#softBlurLeft)">
    <path d="M18 258C56 236 106 192 140 152C176 110 188 70 196 28" stroke="url(#stemLeft)" stroke-width="3.2" stroke-linecap="round"/>
    <path d="M76 224C112 198 150 154 168 118" stroke="url(#stemLeft)" stroke-width="2.4" stroke-linecap="round"/>
    <path d="M42 248C72 222 110 176 130 142" stroke="url(#stemLeft)" stroke-width="2" stroke-linecap="round"/>

    <ellipse cx="126" cy="156" rx="21" ry="10" transform="rotate(-24 126 156)" fill="url(#leafLeft)"/>
    <ellipse cx="144" cy="136" rx="20" ry="9" transform="rotate(-12 144 136)" fill="url(#leafLeft)"/>
    <ellipse cx="162" cy="116" rx="19" ry="8.5" transform="rotate(-2 162 116)" fill="url(#leafLeft)"/>
    <ellipse cx="178" cy="96" rx="18" ry="8.2" transform="rotate(8 178 96)" fill="url(#leafLeft)"/>

    <ellipse cx="100" cy="184" rx="16" ry="7.5" transform="rotate(-34 100 184)" fill="url(#leafLeft)"/>
    <ellipse cx="116" cy="168" rx="15" ry="7.2" transform="rotate(-18 116 168)" fill="url(#leafLeft)"/>
    <ellipse cx="132" cy="148" rx="14" ry="6.8" transform="rotate(-6 132 148)" fill="url(#leafLeft)"/>
    <ellipse cx="146" cy="126" rx="13" ry="6.5" transform="rotate(10 146 126)" fill="url(#leafLeft)"/>

    <ellipse cx="66" cy="220" rx="14" ry="6.4" transform="rotate(-36 66 220)" fill="url(#leafLeft)"/>
    <ellipse cx="84" cy="202" rx="13.5" ry="6.2" transform="rotate(-24 84 202)" fill="url(#leafLeft)"/>
    <ellipse cx="100" cy="182" rx="13" ry="6" transform="rotate(-14 100 182)" fill="url(#leafLeft)"/>
  </g>
</svg>
