<svg xmlns="http://www.w3.org/2000/svg" viewBox="0 0 1200 800" role="img" aria-label="Botanisches Overlay">
  <defs>
    <linearGradient id="stem" x1="0" y1="0" x2="1" y2="1">
      <stop offset="0" stop-color="#8f8971" stop-opacity="0.34"/>
      <stop offset="1" stop-color="#6b6a50" stop-opacity="0.14"/>
    </linearGradient>
    <linearGradient id="leaf" x1="0" y1="0" x2="1" y2="1">
      <stop offset="0" stop-color="#c8c3b2" stop-opacity="0.42"/>
      <stop offset="1" stop-color="#9e9880" stop-opacity="0.16"/>
    </linearGradient>
    <filter id="blur" x="-20%" y="-20%" width="140%" height="140%">
      <feGaussianBlur stdDeviation="1.2"/>
    </filter>
  </defs>

  <g filter="url(#blur)">
    <path d="M120 720C220 620 270 520 315 360C344 254 370 172 418 92" fill="none" stroke="url(#stem)" stroke-linecap="round" stroke-width="7"/>
    <path d="M1040 740C948 642 898 544 852 388C822 282 792 188 744 104" fill="none" stroke="url(#stem)" stroke-linecap="round" stroke-width="7"/>

    <path d="M312 364C248 336 196 292 160 228" fill="none" stroke="url(#stem)" stroke-linecap="round" stroke-width="4.5"/>
    <path d="M848 388C904 350 950 306 988 242" fill="none" stroke="url(#stem)" stroke-linecap="round" stroke-width="4.5"/>

    <ellipse cx="246" cy="312" rx="54" ry="22" transform="rotate(-28 246 312)" fill="url(#leaf)"/>
    <ellipse cx="210" cy="254" rx="42" ry="18" transform="rotate(-34 210 254)" fill="url(#leaf)"/>
    <ellipse cx="188" cy="194" rx="34" ry="15" transform="rotate(-40 188 194)" fill="url(#leaf)"/>

    <ellipse cx="952" cy="332" rx="54" ry="22" transform="rotate(28 952 332)" fill="url(#leaf)"/>
    <ellipse cx="988" cy="274" rx="42" ry="18" transform="rotate(34 988 274)" fill="url(#leaf)"/>
    <ellipse cx="1010" cy="214" rx="34" ry="15" transform="rotate(40 1010 214)" fill="url(#leaf)"/>

    <ellipse cx="358" cy="246" rx="46" ry="18" transform="rotate(-8 358 246)" fill="url(#leaf)"/>
    <ellipse cx="820" cy="264" rx="46" ry="18" transform="rotate(8 820 264)" fill="url(#leaf)"/>
  </g>
</svg>
