<svg xmlns="http://www.w3.org/2000/svg" viewBox="0 0 1200 675" role="img" aria-label="Allergiezeit Illustration">
  <defs>
    <linearGradient id="bg" x1="0" y1="0" x2="1" y2="1">
      <stop offset="0%" stop-color="#eef7ef"/>
      <stop offset="100%" stop-color="#f9f3ea"/>
    </linearGradient>
  </defs>
  <rect width="1200" height="675" fill="url(#bg)"/>
  <circle cx="220" cy="160" r="90" fill="#d8ebd9"/>
  <circle cx="980" cy="120" r="70" fill="#e7f2e8"/>
  <g fill="none" stroke="#0e7c86" stroke-width="6" opacity="0.55">
    <path d="M120 510 C 250 440, 380 560, 520 500"/>
    <path d="M700 505 C 820 445, 980 545, 1090 490"/>
  </g>
  <g transform="translate(540 190)">
    <ellipse cx="90" cy="220" rx="145" ry="190" fill="#ffffff" opacity="0.92"/>
    <path d="M90 70 C 120 120, 180 130, 190 190 C 200 260, 155 320, 90 340 C 25 320, -20 260, -10 190 C 0 130, 60 120, 90 70Z" fill="#bfd7c1"/>
    <line x1="90" y1="125" x2="90" y2="300" stroke="#0e7c86" stroke-width="10" stroke-linecap="round"/>
    <path d="M90 165 C 45 165, 20 190, 15 220" stroke="#0e7c86" stroke-width="10" stroke-linecap="round" fill="none"/>
    <path d="M90 205 C 145 205, 165 235, 160 265" stroke="#0e7c86" stroke-width="10" stroke-linecap="round" fill="none"/>
  </g>
  <g fill="#0e7c86" opacity="0.35">
    <circle cx="350" cy="290" r="10"/>
    <circle cx="400" cy="250" r="8"/>
    <circle cx="850" cy="280" r="10"/>
    <circle cx="905" cy="330" r="8"/>
  </g>
</svg>